<svg width="55.033398mm" height="50.800892mm" viewBox="0 0 55.033398 50.800892" version="1.1" id="svg1" xml:space="preserve" inkscape:version="1.3.2 (091e20e, 2023-11-25, custom)" sodipodi:docname="Folders.svg" xmlns:inkscape="http://www.inkscape.org/namespaces/inkscape" xmlns:sodipodi="http://sodipodi.sourceforge.net/DTD/sodipodi-0.dtd" xmlns="http://www.w3.org/2000/svg" xmlns:svg="http://www.w3.org/2000/svg"><sodipodi:namedview id="namedview1" pagecolor="#505050" bordercolor="#eeeeee" borderopacity="1" inkscape:showpageshadow="0" inkscape:pageopacity="0" inkscape:pagecheckerboard="0" inkscape:deskcolor="#505050" inkscape:document-units="mm" inkscape:zoom="0.65312101" inkscape:cx="1600.7753" inkscape:cy="590.24284" inkscape:window-width="1920" inkscape:window-height="1017" inkscape:window-x="1912" inkscape:window-y="71" inkscape:window-maximized="1" inkscape:current-layer="layer1" fill="#000000"/><defs id="defs1" fill="#000000"/><g inkscape:label="Layer 1" inkscape:groupmode="layer" id="layer1" transform="translate(-484.60997,-228.89576)"><g id="g2" transform="translate(0,11.722619)"><text xml:space="preserve" style="font-style:normal;font-variant:normal;font-weight:normal;font-stretch:normal;font-size:12.7684px;font-family:'Source Code Pro';-inkscape-font-specification:'Source Code Pro';text-align:center;text-anchor:middle;fill:#ffffff;fill-opacity:1;stroke-width:11.5241;paint-order:markers stroke fill" x="494.61008" y="80.667038" id="text4-6-4" transform="scale(0.96182774,1.0396872)"><tspan sodipodi:role="line" id="tspan4-9-6" style="font-style:normal;font-variant:normal;font-weight:bold;font-stretch:normal;font-family:'Source Code Pro';-inkscape-font-specification:'Source Code Pro';fill:#ffffff;stroke-width:11.5241" x="494.61008" y="80.667038">Question Icons</tspan></text><g id="g1" transform="translate(9.1515995,2.3950977)"><path style="fill:#ffc966;fill-opacity:1" d="m 472.47076,159.51867 c -1.27537,-0.6313 -2.61384,-2.04338 -3.14749,-3.32058 l -0.36378,-0.87064 9.9e-4,-21.63818 9.9e-4,-21.63818 0.52576,-0.86232 c 0.28917,-0.47427 0.9138,-1.0989 1.38807,-1.38807 l 0.86232,-0.52576 9.41172,-9.9e-4 9.41172,-9.9e-4 1.2841,0.43754 1.2841,0.43754 3.15008,3.02649 3.15008,3.02649 1.49993,0.69859 1.49993,0.6986 7.4212,0.13685 7.42119,0.13685 0.72738,0.4774 c 0.40005,0.26257 0.95937,0.85788 1.24292,1.32292 l 0.51554,0.84552 9.9e-4,1.78594 9.9e-4,1.78593 h -2.11667 -2.11666 v -1.043 -1.04301 l -7.34219,-0.0815 -7.34219,-0.0815 -2.04437,-0.97622 -2.04437,-0.97623 -2.99997,-2.90044 -2.99997,-2.90044 -1.04107,-0.28905 -1.04108,-0.28904 -7.74537,-0.001 -7.74538,-0.001 0.0725,20.47754 0.0725,20.47754 0.50403,0.55683 0.50403,0.55684 h 0.97632 0.97632 l 0.50403,-0.55663 0.50402,-0.55664 0.13229,-12.88313 0.1323,-12.88314 0.47739,-0.72807 c 0.26257,-0.40044 0.85788,-0.96007 1.32292,-1.24362 l 0.84552,-0.51554 h 20.50521 20.5052 l 0.86232,0.52576 c 0.47427,0.28916 1.0989,0.9138 1.38807,1.38807 l 0.52576,0.86231 9.9e-4,12.18985 9.9e-4,12.18985 -0.44222,1.3039 -0.44222,1.3039 -1.6083,1.6083 -1.6083,1.6083 -1.30391,0.44222 -1.3039,0.44222 -21.84714,-2e-4 -21.84713,-2.1e-4 z" id="path1-8" inkscape:export-filename="Closed Folder.svg" inkscape:export-xdpi="96" inkscape:export-ydpi="96"/><path d="m 357.09345,109.27292 -9.41183,0.001 -9.41183,10e-4 -0.86248,0.52555 c -0.47427,0.28917 -1.09886,0.91376 -1.38803,1.38803 l -0.52555,0.86248 -0.001,21.63796 -10e-4,21.63847 0.3638,0.87075 c 0.53365,1.2772 1.87224,2.68891 3.14761,3.32021 l 1.11879,0.555 h 21.84725 l 21.84725,5.2e-4 1.30379,-0.44235 1.3038,-0.44235 1.60817,-1.60817 1.60869,-1.60817 0.44183,-1.3038 0.44235,-1.30431 -10e-4,-12.18944 -0.001,-12.18995 -0.52555,-0.86248 c -0.28917,-0.47427 -0.91376,-1.09887 -1.38803,-1.38803 l -0.86248,-0.52555 h -20.5052 -20.50521 l -0.84543,0.51521 c -0.46504,0.28355 -1.06035,0.84342 -1.32291,1.24386 l -0.4775,0.72812 -0.13229,12.88293 -0.13229,12.88294 -0.50384,0.55707 -0.50437,0.55655 h -0.97616 -0.97617 l -0.50385,-0.55707 -0.50436,-0.55655 -0.0723,-20.47782 -0.0723,-20.47731 7.74526,10e-4 7.74526,0.001 1.04129,0.28887 1.04076,0.28887 2.99982,2.9006 3.00033,2.9006 2.04432,0.97617 2.04432,0.97616 7.34219,0.0816 7.34218,0.0811 v 1.04334 1.04283 h 2.11667 2.11667 l -0.001,-1.78593 -10e-4,-1.78594 -0.51521,-0.84543 c -0.28355,-0.46504 -0.84329,-1.06035 -1.24334,-1.32291 l -0.72709,-0.4775 -7.42125,-0.13694 -7.42125,-0.13694 -1.50017,-0.69867 -1.49965,-0.69814 -3.15019,-3.02669 -3.1502,-3.02669 -1.28416,-0.43718 z m 18.67173,21.66069 c 0.34724,0 0.69455,0.13069 1.04179,0.39274 0.34725,0.26205 0.57879,0.30596 0.69454,0.13126 0.23149,-0.0873 0.40515,-0.17465 0.52089,-0.262 0.2315,-0.1747 0.34727,-0.21861 0.34727,-0.13126 0.11575,0.1747 0.34728,0.3493 0.69453,0.524 0.2315,0.0874 0.34727,0.26247 0.34727,0.52452 0,0.26204 -0.0579,0.43665 -0.17364,0.524 -2.43072,2.27106 -5.26653,5.06628 -8.50749,8.38553 l 5.03484,7.59902 c -0.11575,0.1747 -0.34729,0.30591 -0.69453,0.39326 v 0.262 c -0.11575,0.17469 -0.40466,0.3493 -0.86765,0.524 0.34724,0.43674 0.34724,0.69865 0,0.78599 -0.34725,0.1747 -0.57878,0.30591 -0.69453,0.39326 -0.463,0.1747 -0.92607,0.0435 -1.38906,-0.39326 -1.73623,-1.74697 -3.41488,-3.71204 -5.03536,-5.89576 -3.00946,3.4066 -5.67162,6.55103 -7.98659,9.43353 -0.57874,0.69879 -0.98393,1.09191 -1.21543,1.17926 -0.34724,0.1747 -0.8682,0.21861 -1.56269,0.13126 -0.57875,0.0874 -0.92554,4e-5 -1.04128,-0.262 l -0.5209,-0.78652 c -0.2315,-0.1747 -0.34727,-0.39269 -0.34727,-0.65474 0.11575,-0.26204 0.23152,-0.56786 0.34727,-0.91726 l -0.5209,-0.65525 c 1.38898,-2.00902 4.86152,-5.72117 10.41745,-11.13679 -1.62048,-2.53311 -3.0097,-5.11033 -4.16719,-7.73079 0,-0.26205 0.28942,-0.56735 0.86817,-0.91674 0.34724,-0.26205 0.63666,-0.30596 0.86816,-0.13126 0.11575,0.17469 0.34729,0.2186 0.69453,0.13126 0.34725,-0.0873 0.57879,-0.21856 0.69453,-0.39326 0.11575,-0.0873 0.28941,-0.13126 0.5209,-0.13126 0.34725,0.0874 0.57879,0.21856 0.69453,0.39326 0.57875,1.04818 1.73591,2.79526 3.47214,5.24102 2.31498,-2.00902 4.62983,-4.1053 6.9448,-6.28902 0.11575,-0.1747 0.2894,-0.262 0.5209,-0.262 z" style="fill:#ffc966" id="path3" inkscape:export-filename="Incorrect Folder.svg" inkscape:export-xdpi="96" inkscape:export-ydpi="96"/><path d="m 423.82684,109.27292 -9.41183,0.001 -9.41131,10e-4 -0.86248,0.52555 c -0.47427,0.28917 -1.09886,0.91376 -1.38803,1.38803 l -0.52606,0.86248 -5.2e-4,21.63796 -10e-4,21.63847 0.3638,0.87075 c 0.53365,1.2772 1.87173,2.68891 3.14709,3.32021 l 1.11932,0.555 h 21.84724 l 21.84673,5.2e-4 1.30431,-0.44235 1.3038,-0.44235 1.60817,-1.60817 1.60817,-1.60817 0.44235,-1.3038 0.44235,-1.30431 -10e-4,-12.18944 -0.001,-12.18995 -0.52555,-0.86248 c -0.28916,-0.47427 -0.91375,-1.09887 -1.38802,-1.38803 l -0.86248,-0.52555 h -20.50521 -20.50521 l -0.84543,0.51521 c -0.46504,0.28355 -1.06034,0.84342 -1.32291,1.24386 l -0.47749,0.72812 -0.1323,12.88293 -0.13229,12.88294 -0.50436,0.55707 -0.50384,0.55655 h -0.97617 -0.97617 l -0.50436,-0.55707 -0.50385,-0.55655 -0.0723,-20.47782 -0.0729,-20.47731 7.74527,10e-4 7.74578,0.001 1.04076,0.28887 1.04128,0.28887 2.99982,2.9006 2.99981,2.9006 2.04484,0.97617 2.04432,0.97616 7.34219,0.0816 7.34218,0.0811 v 1.04334 1.04283 h 2.11667 2.11667 l -10e-4,-1.78593 -0.001,-1.78594 -0.51573,-0.84543 c -0.28355,-0.46504 -0.84277,-1.06035 -1.24282,-1.32291 l -0.7276,-0.4775 -7.42074,-0.13694 -7.42125,-0.13694 -1.50017,-0.69867 -1.49965,-0.69814 -3.15019,-3.02669 -3.1502,-3.02669 -1.28416,-0.43718 z m 26.00875,21.66586 0.17363,0.65525 c -1.96772,1.48493 -5.38237,4.80396 -10.24381,9.95754 -4.7457,5.15357 -8.16035,9.21544 -10.24382,12.1853 -0.463,0.78614 -1.04132,1.26656 -1.73582,1.44125 -0.34724,0.26205 -1.09974,0.34935 -2.25722,0.262 -0.81024,0.0873 -1.38908,5e-5 -1.73633,-0.262 -0.34725,-0.17469 -0.69455,-0.5239 -1.0418,-1.04799 -1.15748,-2.09637 -2.02575,-3.88736 -2.60449,-5.37228 0,-0.3494 -0.0574,-0.6547 -0.17312,-0.91674 0,-0.78614 0.6941,-1.48508 2.08308,-2.09652 0.92599,-0.34939 1.6206,-0.524 2.0836,-0.524 0.57874,0.0874 0.98393,0.34926 1.21543,0.786 0.69449,1.22288 1.15756,2.05251 1.38906,2.48926 0.2315,0.34939 0.46303,0.52399 0.69453,0.52399 0.2315,0 0.46303,-0.13069 0.69453,-0.39274 3.93545,-5.24092 7.46536,-9.30279 10.59057,-12.1853 2.43072,-2.18372 3.93571,-3.45037 4.51445,-3.79977 1.85198,-1.04818 4.05106,-1.6159 6.59753,-1.70325 z" style="fill:#ffc966" id="path4" inkscape:export-filename="Correct Folder.svg" inkscape:export-xdpi="96" inkscape:export-ydpi="96"/><path style="fill:#ffc966;fill-opacity:1" d="m 539.20472,159.51865 c -1.27537,-0.6313 -2.61384,-2.04338 -3.14749,-3.32058 l -0.36377,-0.87064 9.8e-4,-21.63818 9.9e-4,-21.63819 0.52576,-0.86231 c 0.28917,-0.47428 0.9138,-1.09891 1.38808,-1.38808 l 0.86231,-0.52576 9.41172,-9.9e-4 9.41172,-9.9e-4 1.2841,0.43754 1.2841,0.43754 3.15008,3.02649 3.15009,3.0265 1.49993,0.69859 1.49993,0.6986 7.42119,0.13685 7.4212,0.13685 0.72737,0.4774 c 0.40005,0.26257 0.95937,0.85788 1.24292,1.32292 l 0.51555,0.84552 9.8e-4,2.84427 9.9e-4,2.84427 h -2.11666 -2.11667 v -2.10134 -2.10134 l -7.34219,-0.0815 -7.34218,-0.0815 -2.04438,-0.97622 -2.04437,-0.97623 -2.99997,-2.90044 -2.99997,-2.90044 -1.04107,-0.28905 -1.04108,-0.28904 -7.73906,-10e-4 -7.73906,-0.001 v 19.95882 19.95881 l 0.27498,0.72327 c 0.71219,1.87319 3.01483,1.83432 4.35109,-0.0734 0.19998,-0.28551 2.40638,-5.63069 4.90312,-11.87817 2.49673,-6.24749 4.76922,-11.73335 5.04996,-12.1908 0.28074,-0.45745 0.91351,-1.023 1.40615,-1.25677 l 0.89571,-0.42504 h 18.77245 18.77245 l 0.87469,0.59531 c 1.26167,0.85868 1.88934,1.82759 2.03723,3.14477 l 0.12966,1.15471 -4.27665,10.69306 c -2.35215,5.88119 -4.50791,11.14639 -4.79058,11.70046 -0.83299,1.6328 -2.02461,2.79612 -3.74447,3.65554 l -1.61323,0.80614 -21.32284,-2e-4 -21.32285,-2.1e-4 z" id="path2-7" inkscape:export-filename="Open Folder.svg" inkscape:export-xdpi="96" inkscape:export-ydpi="96"/><path style="fill:#ffc966;fill-opacity:1" d="m 478.96961,265.02376 c -1.27537,-0.6313 -2.61384,-2.04338 -3.14749,-3.32058 l -0.36378,-0.87064 9.9e-4,-21.63818 9.9e-4,-21.63818 0.52576,-0.86232 c 0.28917,-0.47427 0.9138,-1.0989 1.38807,-1.38807 l 0.86232,-0.52576 9.41172,-9.9e-4 9.41172,-9.9e-4 1.2841,0.43754 1.2841,0.43754 3.15008,3.02649 3.15008,3.02649 1.49993,0.69859 1.49993,0.6986 7.4212,0.13685 7.42119,0.13685 0.72738,0.4774 c 0.40005,0.26257 0.95937,0.85788 1.24292,1.32292 l 0.51554,0.84552 9.9e-4,1.78594 9.9e-4,1.78593 h -2.11667 -2.11666 v -1.043 -1.04301 l -7.34219,-0.0815 -7.34219,-0.0815 -2.04437,-0.97622 -2.04437,-0.97623 -2.99997,-2.90044 -2.99997,-2.90044 -1.04107,-0.28905 -1.04108,-0.28904 -7.74537,-0.001 -7.74538,-0.001 0.0725,20.47754 0.0725,20.47754 0.50403,0.55683 0.50403,0.55684 h 0.97632 0.97632 l 0.50403,-0.55663 0.50402,-0.55664 0.13229,-12.88313 0.1323,-12.88314 0.47739,-0.72807 c 0.26257,-0.40044 0.85788,-0.96007 1.32292,-1.24362 l 0.84552,-0.51554 h 20.50521 20.5052 l 0.86232,0.52576 c 0.47427,0.28916 1.0989,0.9138 1.38807,1.38807 l 0.52576,0.86231 9.9e-4,12.18985 9.9e-4,12.18985 -0.44222,1.3039 -0.44222,1.3039 -1.6083,1.6083 -1.6083,1.6083 -1.30391,0.44222 -1.3039,0.44222 -21.84714,-2e-4 -21.84713,-2.1e-4 z" id="path1-8-4" inkscape:export-filename="Closed Folder.svg" inkscape:export-xdpi="96" inkscape:export-ydpi="96"/><path d="m 363.5923,214.77801 -9.41183,0.001 -9.41183,0.001 -0.86248,0.52555 c -0.47427,0.28917 -1.09886,0.91376 -1.38803,1.38803 l -0.52555,0.86248 -10e-4,21.63796 -10e-4,21.63847 0.3638,0.87075 c 0.53365,1.2772 1.87224,2.68891 3.14761,3.32021 l 1.11879,0.555 h 21.84725 l 21.84725,5.2e-4 1.30379,-0.44235 1.3038,-0.44235 1.60817,-1.60817 1.60869,-1.60817 0.44183,-1.3038 0.44235,-1.30431 -10e-4,-12.18944 -0.001,-12.18995 -0.52555,-0.86248 c -0.28917,-0.47427 -0.91376,-1.09887 -1.38803,-1.38803 l -0.86248,-0.52555 h -20.5052 -20.50521 l -0.84543,0.51521 c -0.46504,0.28355 -1.06035,0.84342 -1.32291,1.24386 l -0.4775,0.72812 -0.13229,12.88293 -0.13229,12.88294 -0.50384,0.55707 -0.50437,0.55655 h -0.97616 -0.97617 l -0.50385,-0.55707 -0.50436,-0.55655 -0.0723,-20.47782 -0.0723,-20.47731 7.74526,10e-4 7.74526,0.001 1.04129,0.28887 1.04076,0.28887 2.99982,2.9006 3.00033,2.9006 2.04432,0.97617 2.04432,0.97616 7.34219,0.0816 7.34218,0.0811 v 1.04334 1.04283 h 2.11667 2.11667 l -0.001,-1.78593 -10e-4,-1.78594 -0.51521,-0.84543 c -0.28355,-0.46504 -0.84329,-1.06035 -1.24334,-1.32291 l -0.72709,-0.4775 -7.42125,-0.13694 -7.42125,-0.13694 -1.50017,-0.69867 -1.49965,-0.69814 -3.15019,-3.02669 -3.1502,-3.02669 -1.28416,-0.43718 z m 18.67173,21.66069 c 0.34724,0 0.69455,0.13069 1.04179,0.39274 0.34725,0.26205 0.57879,0.30596 0.69454,0.13126 0.23149,-0.0873 0.40515,-0.17465 0.52089,-0.262 0.2315,-0.1747 0.34727,-0.21861 0.34727,-0.13126 0.11575,0.1747 0.34728,0.3493 0.69453,0.524 0.2315,0.0874 0.34727,0.26247 0.34727,0.52452 0,0.26204 -0.0579,0.43665 -0.17364,0.524 -2.43072,2.27106 -5.26653,5.06628 -8.50749,8.38553 l 5.03484,7.59902 c -0.11575,0.1747 -0.34729,0.30591 -0.69453,0.39326 v 0.262 c -0.11575,0.17469 -0.40466,0.3493 -0.86765,0.524 0.34724,0.43674 0.34724,0.69865 0,0.78599 -0.34725,0.1747 -0.57878,0.30591 -0.69453,0.39326 -0.463,0.1747 -0.92607,0.0435 -1.38906,-0.39326 -1.73623,-1.74697 -3.41488,-3.71204 -5.03536,-5.89576 -3.00946,3.4066 -5.67162,6.55103 -7.98659,9.43353 -0.57874,0.69879 -0.98393,1.09191 -1.21543,1.17926 -0.34724,0.1747 -0.8682,0.21861 -1.56269,0.13126 -0.57875,0.0874 -0.92554,4e-5 -1.04128,-0.262 l -0.5209,-0.78652 c -0.2315,-0.1747 -0.34727,-0.39269 -0.34727,-0.65474 0.11575,-0.26204 0.23152,-0.56786 0.34727,-0.91726 l -0.5209,-0.65525 c 1.38898,-2.00902 4.86152,-5.72117 10.41745,-11.13679 -1.62048,-2.53311 -3.0097,-5.11033 -4.16719,-7.73079 0,-0.26205 0.28942,-0.56735 0.86817,-0.91674 0.34724,-0.26205 0.63666,-0.30596 0.86816,-0.13126 0.11575,0.17469 0.34729,0.2186 0.69453,0.13126 0.34725,-0.0873 0.57879,-0.21856 0.69453,-0.39326 0.11575,-0.0873 0.28941,-0.13126 0.5209,-0.13126 0.34725,0.0874 0.57879,0.21856 0.69453,0.39326 0.57875,1.04818 1.73591,2.79526 3.47214,5.24102 2.31498,-2.00902 4.62983,-4.1053 6.9448,-6.28902 0.11575,-0.1747 0.2894,-0.262 0.5209,-0.262 z" style="fill:#ffc966" id="path3-5" inkscape:export-filename="Incorrect Folder.svg" inkscape:export-xdpi="96" inkscape:export-ydpi="96"/><path d="m 430.32569,214.77801 -9.41183,0.001 -9.41131,0.001 -0.86248,0.52555 c -0.47427,0.28917 -1.09886,0.91376 -1.38803,1.38803 l -0.52606,0.86248 -5.2e-4,21.63796 -10e-4,21.63847 0.3638,0.87075 c 0.53365,1.2772 1.87173,2.68891 3.14709,3.32021 l 1.11932,0.555 h 21.84724 l 21.84673,5.2e-4 1.30431,-0.44235 1.3038,-0.44235 1.60817,-1.60817 1.60817,-1.60817 0.44235,-1.3038 0.44235,-1.30431 -10e-4,-12.18944 -0.001,-12.18995 -0.52555,-0.86248 c -0.28916,-0.47427 -0.91375,-1.09887 -1.38802,-1.38803 l -0.86248,-0.52555 h -20.50521 -20.50521 l -0.84543,0.51521 c -0.46504,0.28355 -1.06034,0.84342 -1.32291,1.24386 l -0.47749,0.72812 -0.1323,12.88293 -0.13229,12.88294 -0.50436,0.55707 -0.50384,0.55655 h -0.97617 -0.97617 l -0.50436,-0.55707 -0.50385,-0.55655 -0.0723,-20.47782 -0.0729,-20.47731 7.74527,10e-4 7.74578,0.001 1.04076,0.28887 1.04128,0.28887 2.99982,2.9006 2.99981,2.9006 2.04484,0.97617 2.04432,0.97616 7.34219,0.0816 7.34218,0.0811 v 1.04334 1.04283 h 2.11667 2.11667 l -10e-4,-1.78593 -0.001,-1.78594 -0.51573,-0.84543 c -0.28355,-0.46504 -0.84277,-1.06035 -1.24282,-1.32291 l -0.7276,-0.4775 -7.42074,-0.13694 -7.42125,-0.13694 -1.50017,-0.69867 -1.49965,-0.69814 -3.15019,-3.02669 -3.1502,-3.02669 -1.28416,-0.43718 z m 26.00875,21.66586 0.17363,0.65525 c -1.96772,1.48493 -5.38237,4.80396 -10.24381,9.95754 -4.7457,5.15357 -8.16035,9.21544 -10.24382,12.1853 -0.463,0.78614 -1.04132,1.26656 -1.73582,1.44125 -0.34724,0.26205 -1.09974,0.34935 -2.25722,0.262 -0.81024,0.0873 -1.38908,5e-5 -1.73633,-0.262 -0.34725,-0.17469 -0.69455,-0.5239 -1.0418,-1.04799 -1.15748,-2.09637 -2.02575,-3.88736 -2.60449,-5.37228 0,-0.3494 -0.0574,-0.6547 -0.17312,-0.91674 0,-0.78614 0.6941,-1.48508 2.08308,-2.09652 0.92599,-0.34939 1.6206,-0.524 2.0836,-0.524 0.57874,0.0874 0.98393,0.34926 1.21543,0.786 0.69449,1.22288 1.15756,2.05251 1.38906,2.48926 0.2315,0.34939 0.46303,0.52399 0.69453,0.52399 0.2315,0 0.46303,-0.13069 0.69453,-0.39274 3.93545,-5.24092 7.46536,-9.30279 10.59057,-12.1853 2.43072,-2.18372 3.93571,-3.45037 4.51445,-3.79977 1.85198,-1.04818 4.05106,-1.6159 6.59753,-1.70325 z" style="fill:#ffc966" id="path4-9" inkscape:export-filename="Correct Folder.svg" inkscape:export-xdpi="96" inkscape:export-ydpi="96"/><path style="fill:#ffc966;fill-opacity:1" d="m 545.70357,265.02374 c -1.27537,-0.6313 -2.61384,-2.04338 -3.14749,-3.32058 l -0.36377,-0.87064 9.8e-4,-21.63818 9.9e-4,-21.63819 0.52576,-0.86231 c 0.28917,-0.47428 0.9138,-1.09891 1.38808,-1.38808 l 0.86231,-0.52576 9.41172,-9.9e-4 9.41172,-9.9e-4 1.2841,0.43754 1.2841,0.43754 3.15008,3.02649 3.15009,3.0265 1.49993,0.69859 1.49993,0.6986 7.42119,0.13685 7.4212,0.13685 0.72737,0.4774 c 0.40005,0.26257 0.95937,0.85788 1.24292,1.32292 l 0.51555,0.84552 9.8e-4,2.84427 9.9e-4,2.84427 h -2.11666 -2.11667 v -2.10134 -2.10134 l -7.34219,-0.0815 -7.34218,-0.0815 -2.04438,-0.97622 -2.04437,-0.97623 -2.99997,-2.90044 -2.99997,-2.90044 -1.04107,-0.28905 -1.04108,-0.28904 -7.73906,-0.001 -7.73906,-0.001 v 19.95882 19.95881 l 0.27498,0.72327 c 0.71219,1.87319 3.01483,1.83432 4.35109,-0.0734 0.19998,-0.28551 2.40638,-5.63069 4.90312,-11.87817 2.49673,-6.24749 4.76922,-11.73335 5.04996,-12.1908 0.28074,-0.45745 0.91351,-1.023 1.40615,-1.25677 l 0.89571,-0.42504 h 18.77245 18.77245 l 0.87469,0.59531 c 1.26167,0.85868 1.88934,1.82759 2.03723,3.14477 l 0.12966,1.15471 -4.27665,10.69306 c -2.35215,5.88119 -4.50791,11.14639 -4.79058,11.70046 -0.83299,1.6328 -2.02461,2.79612 -3.74447,3.65554 l -1.61323,0.80614 -21.32284,-2e-4 -21.32285,-2.1e-4 z" id="path2-7-5" inkscape:export-filename="Open Folder.svg" inkscape:export-xdpi="96" inkscape:export-ydpi="96"/><text xml:space="preserve" style="font-style:normal;font-variant:normal;font-weight:normal;font-stretch:normal;font-size:6.39617px;font-family:'Source Code Pro';-inkscape-font-specification:'Source Code Pro';text-align:center;text-anchor:middle;fill:#ffffff;fill-opacity:1;stroke-width:5.77288;paint-order:markers stroke fill" x="588.9325" y="96.868118" id="text4" transform="scale(0.96182774,1.0396872)"><tspan sodipodi:role="line" id="tspan4" style="font-style:normal;font-variant:normal;font-weight:normal;font-stretch:normal;font-family:'Source Code Pro';-inkscape-font-specification:'Source Code Pro';fill:#ffffff;stroke-width:5.77288" x="588.9325" y="96.868118">Current</tspan></text><text xml:space="preserve" style="font-style:normal;font-variant:normal;font-weight:normal;font-stretch:normal;font-size:6.39617px;font-family:'Source Code Pro';-inkscape-font-specification:'Source Code Pro';text-align:center;text-anchor:middle;fill:#ffffff;fill-opacity:1;stroke-width:5.77288;paint-order:markers stroke fill" x="516.14795" y="97.491745" id="text4-6" transform="scale(0.96182774,1.0396872)"><tspan sodipodi:role="line" id="tspan4-9" style="font-style:normal;font-variant:normal;font-weight:normal;font-stretch:normal;font-family:'Source Code Pro';-inkscape-font-specification:'Source Code Pro';fill:#ffffff;stroke-width:5.77288" x="516.14795" y="97.491745">Unanswered</tspan></text><text xml:space="preserve" style="font-style:normal;font-variant:normal;font-weight:normal;font-stretch:normal;font-size:6.39617px;font-family:'Source Code Pro';-inkscape-font-specification:'Source Code Pro';text-align:center;text-anchor:middle;fill:#ffffff;fill-opacity:1;stroke-width:5.77288;paint-order:markers stroke fill" x="446.7016" y="97.395805" id="text4-6-9" transform="scale(0.96182774,1.0396872)"><tspan sodipodi:role="line" id="tspan4-9-9" style="font-style:normal;font-variant:normal;font-weight:normal;font-stretch:normal;font-family:'Source Code Pro';-inkscape-font-specification:'Source Code Pro';fill:#ffffff;stroke-width:5.77288" x="446.7016" y="97.395805">Correct</tspan></text><text xml:space="preserve" style="font-style:normal;font-variant:normal;font-weight:normal;font-stretch:normal;font-size:6.39617px;font-family:'Source Code Pro';-inkscape-font-specification:'Source Code Pro';text-align:center;text-anchor:middle;fill:#ffffff;fill-opacity:1;stroke-width:5.77288;paint-order:markers stroke fill" x="377.31924" y="97.395805" id="text4-6-9-7" transform="scale(0.96182774,1.0396872)"><tspan sodipodi:role="line" id="tspan4-9-9-9" style="font-style:normal;font-variant:normal;font-weight:normal;font-stretch:normal;font-family:'Source Code Pro';-inkscape-font-specification:'Source Code Pro';fill:#ffffff;stroke-width:5.77288" x="377.31924" y="97.395805">Incorrect</tspan></text></g></g></g></svg>