<?xml version="1.0" encoding="UTF-8" standalone="no"?>
<!-- Created with Inkscape (http://www.inkscape.org/) -->

<svg
   width="210mm"
   height="297mm"
   viewBox="0 0 210 297"
   version="1.1"
   id="svg1"
   inkscape:version="1.4 (86a8ad7, 2024-10-11)"
   sodipodi:docname="logo_cyan.svg"
   xmlns:inkscape="http://www.inkscape.org/namespaces/inkscape"
   xmlns:sodipodi="http://sodipodi.sourceforge.net/DTD/sodipodi-0.dtd"
   xmlns="http://www.w3.org/2000/svg"
   xmlns:svg="http://www.w3.org/2000/svg">
  <sodipodi:namedview
     id="namedview1"
     pagecolor="#ffffff"
     bordercolor="#000000"
     borderopacity="0.25"
     inkscape:showpageshadow="2"
     inkscape:pageopacity="0.0"
     inkscape:pagecheckerboard="0"
     inkscape:deskcolor="#d1d1d1"
     inkscape:document-units="mm"
     inkscape:zoom="0.71891835"
     inkscape:cx="412.42514"
     inkscape:cy="561.25984"
     inkscape:window-width="1920"
     inkscape:window-height="1009"
     inkscape:window-x="-8"
     inkscape:window-y="45"
     inkscape:window-maximized="1"
     inkscape:current-layer="layer1" />
  <defs
     id="defs1" />
  <g
     inkscape:label="Layer 1"
     inkscape:groupmode="layer"
     id="layer1">
    <g
       id="g48"
       transform="matrix(0.26458333,0,0,0.26458333,399.70564,20.113645)"
       style="fill:#6fffe9;fill-opacity:1">
      <path
         style="fill:#6fffe9;fill-opacity:1;fill-rule:nonzero"
         d="m -1349.4439,450.6474 c -1.0352,-0.31571 -2.5408,-0.93663 -3.3458,-1.37981 -1.6048,-0.88358 -13.2021,-6.05397 -17.6345,-7.86197 l -2.7881,-1.13728 v -34.61042 -34.61043 h 4.7961 c 2.6379,0 6.4018,0.33324 8.3643,0.74054 1.9625,0.4073 26.6537,1.05595 54.8693,1.44145 33.7594,0.46125 52.2683,0.98647 54.1296,1.53603 2.3241,0.68621 3.4509,0.60522 6.3197,-0.45424 5.3822,-1.9877 5.424,-2.05629 5.1886,-8.51575 -0.1157,-3.175 0.068,-6.0524 0.4093,-6.39421 0.3408,-0.34181 8.0845,-0.62148 17.2082,-0.62148 15.2693,0 16.7129,-0.11263 18.1535,-1.41635 1.1196,-1.01316 1.5651,-2.30847 1.5651,-4.55021 0,-3.07957 0.058,-3.15009 3.3443,-4.0702 2.1639,-0.60589 5.1191,-0.76144 8.3734,-0.44077 2.766,0.27256 75.3689,0.49929 161.3398,0.50385 l 156.31053,0.008 v 26.5484 26.54841 l -2.04461,0.8834 c -1.12454,0.48587 -3.04833,1.12579 -4.27509,1.42204 -4.98524,1.20389 -36.83474,16.29208 -47.2119,22.36588 -1.43123,0.8377 -5.61338,3.27164 -9.29368,5.40875 -8.44751,4.90538 -18.44587,11.31454 -24.39245,15.63608 l -4.60383,3.34573 -191.44977,0.12415 c -105.2974,0.0683 -192.2968,-0.13417 -193.332,-0.44989 z"
         id="path3" />
      <path
         style="fill:#6fffe9;fill-opacity:1;fill-rule:nonzero;stroke-width:0.743494"
         d="m -1111.7501,321.48119 c -0.2726,-0.27261 -0.4957,-9.42824 -0.4957,-20.34583 0,-25.38576 1.2992,-23.27898 -16.7286,-27.12868 -4.907,-1.04787 -14.9442,-3.37738 -22.3048,-5.1767 -7.3606,-1.79931 -16.3941,-3.81489 -20.0744,-4.47907 -3.6803,-0.66418 -10.3717,-2.17793 -14.8699,-3.36391 -4.4981,-1.18597 -13.0297,-3.18349 -18.9591,-4.43894 -16.6766,-3.531 -35.6877,-8.33561 -35.6877,-9.01923 0,-0.33912 0.9201,-0.8254 2.0446,-1.08063 1.1245,-0.25523 4.1444,-1.08984 6.7108,-1.85469 2.5664,-0.76485 9.2144,-2.25884 14.7734,-3.31997 5.559,-1.06113 10.9871,-2.27058 12.0624,-2.68766 2.7645,-1.0722 39.6314,-9.82002 51.2308,-12.15613 2.9752,-0.59919 6.9901,-1.56577 8.922,-2.14796 1.9319,-0.58218 6.8582,-1.79857 10.9475,-2.70309 4.0892,-0.90452 10.1115,-2.355 13.3828,-3.2233 5.848,-1.55218 6.9465,-1.57652 65.3378,-1.44753 32.6645,0.0722 59.6606,0.40577 59.99148,0.74136 0.33089,0.33559 0.84097,12.5857 1.13353,27.22247 l 0.53194,26.61232 -2.49079,2.56984 -2.49078,2.56983 -23.83188,0.0662 c -36.0489,0.1001 -57.5914,0.849 -58.3197,2.02741 -0.3313,0.53604 -0.8403,10.21827 -1.1311,21.51606 -0.2909,11.2978 -0.696,20.81192 -0.9003,21.14249 -0.4439,0.71826 -28.0703,0.81938 -28.7843,0.10536 z"
         id="path4" />
      <path
         style="fill:#6fffe9;fill-opacity:1;fill-rule:nonzero;stroke-width:0.743494"
         d="m -1078.3979,545.97763 c -2.0342,-0.16724 -4.0416,-0.5786 -4.461,-0.91415 -0.4193,-0.33555 -1.9333,-0.85961 -3.3646,-1.16458 -1.4312,-0.30497 -3.4001,-1.18003 -4.3753,-1.94459 -0.9752,-0.76455 -2.1638,-1.3901 -2.6412,-1.3901 -0.4774,0 -2.7679,-1.86979 -5.09,-4.1551 -4.088,-4.02332 -8.7113,-11.61578 -8.7113,-14.30579 0,-0.72383 -0.2782,-1.6339 -0.6182,-2.02238 -2.1821,-2.49341 -3.0985,-14.19248 -1.5694,-20.03717 1.0065,-3.84742 5.1116,-12.12086 7.0203,-14.14878 0.8178,-0.86893 2.3379,-2.55766 3.3779,-3.75273 4.6943,-5.39436 9.1195,-7.95807 17.4399,-10.10374 3.5039,-0.90358 20.0798,-0.35136 21.4022,0.713 0.4965,0.39957 1.9645,0.95339 3.2623,1.23071 2.6463,0.56546 10.0461,5.46201 12.882,8.52414 7.0425,7.60426 9.126,13.35042 9.1896,25.34409 0.034,6.35704 -0.3105,9.69444 -1.3417,13.01115 -1.3501,4.34242 -5.3565,10.64956 -9.2633,14.58281 -2.981,3.00123 -10.5721,8.09377 -12.0647,8.09377 -0.7358,0 -2.7714,0.46953 -4.5236,1.04339 -3.6715,1.20243 -11.1902,1.83667 -16.5499,1.39605 z m 12.2357,-6.59038 c 1.424,-0.29123 3.5987,-1.09405 4.8327,-1.78404 1.234,-0.68999 3.08,-1.47969 4.1023,-1.75489 2.3247,-0.6258 4.3462,-2.34775 6.6833,-5.69303 0.9999,-1.43122 2.2467,-3.04384 2.7707,-3.58359 0.524,-0.53974 1.1734,-1.87803 1.4432,-2.97397 0.2697,-1.09594 1.023,-2.81583 1.674,-3.82198 0.9321,-1.44079 1.1835,-3.94088 1.1835,-11.77018 0,-8.60942 -0.1743,-10.06821 -1.3012,-10.89201 -0.7156,-0.52316 -1.3011,-1.4534 -1.3011,-2.0672 0,-1.71139 -5.7568,-8.80591 -9.6059,-11.8381 -4.366,-3.43941 -9.9479,-5.09758 -17.1599,-5.09758 -5.6106,0 -12.54,1.5205 -14.6551,3.21574 -1.1869,0.95137 -4.6785,4.45776 -6.7925,6.82144 -3.9784,4.44816 -6.8052,12.59064 -6.8052,19.60218 0,4.87906 2.1745,13.67182 4.4175,17.86294 1.7679,3.30336 8.1968,9.71212 10.2627,10.23065 0.9222,0.23145 1.6767,0.71912 1.6767,1.08371 0,0.3646 0.6494,0.6629 1.4431,0.6629 0.7937,0 1.6499,0.33457 1.9026,0.74349 0.2528,0.40892 1.3599,0.74862 2.4603,0.75488 1.1004,0.006 2.5026,0.35134 3.116,0.76683 1.0967,0.74293 4.5492,0.57546 9.6523,-0.46819 z"
         id="path6" />
      <path
         style="fill:#6fffe9;fill-opacity:1;fill-rule:nonzero;stroke-width:0.743494"
         d="m -1009.1565,670.80307 c -0.6768,-0.74781 -1.2305,-1.61039 -1.2305,-1.91683 0,-0.30644 -1.2345,-3.12396 -2.7434,-6.26116 -2.0557,-4.27426 -4.1522,-7.10805 -8.3643,-11.30559 -9.1918,-9.16015 -20.8459,-14.1977 -36.1042,-15.60627 -4.4982,-0.41525 -11.8588,-1.11381 -16.3569,-1.55237 -9.5759,-0.93363 -49.4134,-0.38658 -55.0186,0.75552 -2.0446,0.4166 -6.1666,1.11206 -9.1601,1.54546 -5.3058,0.76822 -12.4045,3.71181 -16.4905,6.83815 -8.3553,6.39295 -15.3495,16.72734 -16.2634,24.03003 l -0.4652,3.71748 h -45.7249 -45.7249 l -0.2135,-32.34201 c -0.1174,-17.78811 -0.019,-33.42937 0.2196,-34.75837 0.2432,-1.35686 0.8853,-2.41635 1.4645,-2.41635 0.5673,0 1.2277,-0.5855 1.4675,-1.30112 0.2398,-0.71561 2.2557,-2.6394 4.4797,-4.27509 2.2241,-1.63569 4.0579,-3.39219 4.0751,-3.90335 0.017,-0.51115 0.4552,-0.92936 0.9734,-0.92936 0.5182,0 2.6633,-1.50558 4.7668,-3.34573 2.1036,-1.84015 4.1531,-3.34572 4.5545,-3.34572 0.4015,0 0.9225,-0.50186 1.1579,-1.11525 0.2353,-0.61338 0.7802,-1.11524 1.2107,-1.11524 0.7603,0 6.6954,-3.6143 7.4423,-4.53214 0.2045,-0.25126 1.6264,-0.86584 3.1599,-1.36573 1.5334,-0.49989 2.7881,-1.21752 2.7881,-1.59473 0,-0.37721 0.4002,-0.68584 0.8894,-0.68584 0.4892,0 2.217,-0.92007 3.8397,-2.04461 l 2.9503,-2.04461 h 123.4837 123.48371 l 6.74233,3.45003 c 16.06593,8.22087 31.0176,20.12731 37.55493,29.90607 l 2.91464,4.35982 v 32.25728 32.25729 h -42.26395 c -40.00036,0 -42.32986,-0.0728 -43.49436,-1.35966 z"
         id="path7" />
      <path
         style="fill:#6fffe9;fill-opacity:1;fill-rule:nonzero;stroke-width:0.743494"
         d="m -1176.1863,543.599 c 0,-3.92485 0.5983,-4.52177 4.532,-4.52177 2.3598,0 4.1526,-0.44795 5.1249,-1.28048 1.448,-1.23977 1.4955,-2.1488 1.4955,-28.59557 0,-27.14212 -0.01,-27.3247 -1.6272,-28.83105 -1.0345,-0.96378 -2.6372,-1.51595 -4.4001,-1.51595 -1.5252,0 -3.3022,-0.20308 -3.949,-0.4513 -1.3895,-0.53317 -1.5764,-4.05543 -0.2839,-5.34796 0.6616,-0.6616 7.9637,-0.89219 28.2528,-0.89219 h 27.3606 v 9.66543 9.66542 h -2.6022 -2.6023 v -4.70311 c 0,-3.95479 -0.2738,-4.96033 -1.7208,-6.3197 -1.642,-1.5426 -2.3668,-1.61659 -15.8364,-1.61659 -9.9875,0 -14.3766,0.26092 -15.0078,0.89219 -1.1389,1.1389 -1.2246,19.12625 -0.1028,21.58823 1.3431,2.94789 3.8959,3.46874 14.0805,2.87289 5.1115,-0.29906 9.5446,-0.41841 9.8513,-0.26524 0.3067,0.15317 0.5576,1.59704 0.5576,3.20859 v 2.9301 h -11.7472 c -8.1454,0 -12.0208,0.27356 -12.6394,0.8922 -0.623,0.62292 -0.8922,4.65148 -0.8922,13.34801 v 12.45583 l 2.4163,1.08477 c 1.329,0.59663 3.671,1.29663 5.2045,1.55557 2.6724,0.45125 2.7881,0.59276 2.7881,3.41107 v 2.94029 h -14.1264 -14.1264 z"
         id="path8" />
      <path
         style="fill:#6fffe9;fill-opacity:1;fill-rule:nonzero;stroke-width:0.743494"
         d="m -1266.4544,544.55866 c -0.8879,-2.31399 0.4365,-8.37981 2.259,-10.34637 0.9701,-1.04672 1.7638,-2.22046 1.7638,-2.60831 0,-0.63768 0.5466,-1.33077 4.1237,-5.22853 0.5944,-0.64769 1.0807,-1.43768 1.0807,-1.75555 0,-0.31787 1.3383,-2.17639 2.974,-4.13003 1.6357,-1.95365 2.974,-3.92388 2.974,-4.37828 0,-0.4544 0.326,-0.82619 0.7244,-0.82619 0.3984,0 1.2704,-1.05595 1.9378,-2.34656 1.2797,-2.47462 1.4792,-2.74835 4.4125,-6.05605 1.016,-1.14561 1.8472,-2.40025 1.8472,-2.78811 0,-0.63767 0.5466,-1.33076 4.1237,-5.22852 0.5944,-0.64769 1.0808,-1.51477 1.0808,-1.92684 0,-0.76534 0.5104,-1.4327 6.2886,-8.22218 4.0709,-4.78338 4.989,-6.44096 4.4074,-7.95678 -0.6902,-1.79855 -2.5002,-1.97279 -18.131,-1.74537 l -14.4981,0.21093 -0.2154,6.54689 -0.2155,6.54688 -3.0386,-0.22718 -3.0386,-0.22718 0.075,-9.29368 c 0.041,-5.11152 0.084,-9.54461 0.094,-9.8513 0.01,-0.30669 11.3945,-0.55762 25.2978,-0.55762 h 25.2788 v 2.96357 c 0,2.43022 -0.7694,4.02211 -4.2751,8.84533 -2.3513,3.23497 -4.7769,6.6232 -5.3903,7.52941 -1.1442,1.69045 -4.6749,6.43515 -5.8385,7.84606 -0.3585,0.43468 -1.0845,1.59878 -1.6133,2.58689 -0.5288,0.98811 -1.3269,2.17216 -1.7734,2.63121 -0.4466,0.45906 -2.1503,2.73657 -3.786,5.06114 -2.5692,3.65126 -8.0707,11.16064 -9.8652,13.46576 -1.4917,1.91611 -7.6306,10.92274 -8.3092,12.19062 -0.6534,1.22088 -0.3644,1.62335 2.0144,2.80611 2.4318,1.20909 4.4933,1.36814 16.5779,1.27904 7.5905,-0.056 14.4967,-0.32262 15.3473,-0.59257 1.926,-0.6113 2.4274,-2.42383 2.4403,-8.82182 0.01,-4.62791 0.1585,-5.10212 1.8469,-5.87139 1.4038,-0.63964 2.1042,-0.61481 2.972,0.10537 0.9336,0.77485 1.1066,2.77557 0.9737,11.26173 l -0.1617,10.31949 h -26.1509 c -23.4698,0 -26.1985,-0.12406 -26.6153,-1.21002 z"
         id="path10" />
      <path
         style="fill:#6fffe9;fill-opacity:1;fill-rule:nonzero;stroke-width:0.743494"
         d="m -1112.9893,698.55678 v -37.54647 h 16.3569 16.3569 v 37.54647 37.54647 h -16.3569 -16.3569 z"
         id="path11" />
      <path
         style="fill:#6fffe9;fill-opacity:1;fill-rule:nonzero;stroke-width:1.48699"
         d="M -872.46882,375.13671 V 349.1144 h 31.97026 31.97026 v 19.37752 c 0,14.23007 -0.49376,19.5173 -1.85874,19.90371 -1.0223,0.2894 -7.54647,1.22514 -14.49814,2.07943 -14.36041,1.76474 -29.22271,4.91981 -39.31366,8.34578 -3.78781,1.28599 -7.19811,2.33817 -7.57846,2.33817 -0.38034,0 -0.69152,-11.71004 -0.69152,-26.0223 z"
         id="path12" />
      <path
         style="fill:#6fffe9;fill-opacity:1;fill-rule:nonzero"
         d="m -1385.5075,433.22267 c -14.3131,-7.73434 -22.0108,-12.74849 -34.9167,-22.7441 -13.0428,-10.10162 -37.9182,-34.42315 -37.9182,-37.07394 0,-1.20723 1.8941,-2.06447 4.8327,-2.18713 8.2195,-0.34312 79.1381,0.40556 79.5726,0.84003 0.2255,0.22549 0.2299,15.4392 0.01,33.80824 l -0.4002,33.39826 z"
         id="path13" />
      <path
         style="fill:#6fffe9;fill-opacity:1;fill-rule:nonzero;stroke-width:1.48699"
         d="m -923.8881,544.87422 c -17.94369,-4.05711 -27.39113,-16.91929 -27.39113,-37.29154 0,-6.09448 0.66914,-11.49442 1.48699,-11.99988 0.81784,-0.50545 1.48699,-1.87558 1.48699,-3.04474 0,-2.36592 2.98064,-6.3033 9.66542,-12.76786 4.71784,-4.56241 16.06704,-8.73351 23.68997,-8.70662 5.70829,0.0201 17.33437,3.48859 22.04964,6.57815 3.89441,2.55172 5.56151,1.83797 5.56151,-2.38111 0,-1.91656 1.10397,-2.72615 3.71747,-2.72615 3.63486,0 3.71747,0.24784 3.71747,11.15242 0,9.74126 -0.33812,11.15242 -2.67219,11.15242 -1.46971,0 -5.3173,-2.73173 -8.55019,-6.07052 -8.13127,-8.3976 -12.40947,-10.28636 -23.29946,-10.28636 -10.9789,0 -17.18673,2.80992 -22.63244,10.24437 -9.76607,13.33259 -7.8383,32.23376 4.38497,42.99311 11.75216,10.34467 25.78018,11.19943 37.55827,2.28852 10.84298,-8.20342 11.62163,-15.3773 1.66905,-15.3773 -4.79754,0 -5.78886,-0.50929 -5.78886,-2.97398 0,-2.70962 0.99132,-2.97398 11.15241,-2.97398 h 11.15242 v 4.73499 c 0,6.32905 -5.02746,16.00104 -10.59831,20.38934 -8.81404,6.94305 -23.92115,9.87918 -36.36,7.06672 z"
         id="path14" />
      <path
         style="fill:#6fffe9;fill-opacity:1;fill-rule:nonzero;stroke-width:1.48699"
         d="m -1023.8638,542.7947 c 0.2779,-1.45779 2.1242,-2.82839 4.1983,-3.11646 7.4628,-1.03654 7.6473,-1.8107 7.2948,-30.6075 -0.1809,-14.77896 -0.9779,-27.70727 -1.771,-28.72957 -0.7932,-1.02231 -2.9615,-1.85874 -4.8185,-1.85874 -2.7924,0 -5.1815,-2.45575 -5.1815,-5.32608 0,-1.35683 39.76449,-0.50552 45.05878,0.96466 11.54099,3.20484 15.19413,17.83384 6.8318,27.35801 -2.53825,2.89091 -5.88398,5.2562 -7.43494,5.2562 -4.24551,0 -3.51646,3.78102 3.49907,18.14691 5.27111,10.7938 7.06061,13.1546 10.77909,14.22033 2.45228,0.70283 4.67607,2.40661 4.94175,3.78617 0.3957,2.05475 -0.73385,2.5083 -6.24693,2.5083 h -6.72998 l -6.24067,-13.01115 c -3.43237,-7.15614 -6.80982,-13.2342 -7.50545,-13.50682 -0.69562,-0.27261 -1.26477,-1.64436 -1.26477,-3.04833 0,-4.17946 -3.1777,-6.12143 -10.01668,-6.12143 h -6.44787 l 0.4256,14.49814 0.4256,14.49814 4.08918,0.47051 c 2.88885,0.3324 4.08922,1.31453 4.08922,3.34573 0,2.64206 -1.15433,2.87521 -14.2354,2.87521 -12.7552,0 -14.1839,-0.27059 -13.7395,-2.60223 z m 43.93642,-42.93686 c 1.82717,-1.1452 3.73986,-3.74657 4.25042,-5.78084 2.54023,-10.12106 -4.24302,-15.59457 -19.32613,-15.59457 h -9.80771 v 11.772 c 0,8.01781 0.5927,12.01623 1.8587,12.53785 3.21421,1.32435 19.55197,-0.75786 23.02472,-2.93444 z"
         id="path15" />
      <path
         style="fill:#6fffe9;fill-opacity:1;fill-rule:nonzero;stroke-width:1.48699"
         d="m -862.88347,543.78038 c -1.33695,-2.16323 0.74911,-3.97008 5.28453,-4.57724 l 3.71748,-0.49766 V 508.9657 479.22592 l -4.83272,-0.46596 c -3.62828,-0.34983 -4.83271,-1.18366 -4.83271,-3.34572 0,-2.75471 1.32375,-2.87977 30.48327,-2.87977 h 30.48327 v 9.66543 c 0,8.57874 -0.32475,9.66543 -2.88848,9.66543 -2.33516,0 -2.97607,-1.21061 -3.34572,-6.3197 l -0.45725,-6.31971 -18.21561,-0.41751 -18.21561,-0.41752 v 12.52609 c 0,14.71681 -0.44334,14.33125 16.47849,14.33125 10.78297,0 11.77429,0.25039 11.77429,2.97398 0,2.76527 -0.99132,2.97397 -14.12639,2.97397 h -14.12639 v 13.2827 c 0,12.46825 0.20514,13.3479 3.34572,14.34606 4.01613,1.27644 30.24449,1.17687 32.3474,-0.1228 0.81488,-0.50362 1.4816,-3.55276 1.4816,-6.77587 0,-4.86887 0.50308,-5.8602 2.97397,-5.8602 2.66896,0 2.97398,0.99133 2.97398,9.66543 v 9.66543 h -29.65202 c -19.74839,0 -29.98571,-0.53992 -30.6511,-1.61655 z"
         id="path16" />
      <path
         style="fill:#6fffe9;fill-opacity:1;fill-rule:nonzero;stroke-width:1.48699"
         d="m -1300.7216,542.42295 c 0,-1.8725 0.9913,-2.97398 2.6766,-2.97398 5.7032,0 6.2453,-2.64605 6.2453,-30.48327 0,-27.66525 -0.5613,-30.48327 -6.0719,-30.48327 -2.8604,0 -4.886,-5.48922 -2.3139,-6.27071 0.9319,-0.28316 6.5457,-0.27146 12.475,0.026 9.3065,0.46686 10.7807,0.91731 10.7807,3.294 0,1.89809 -1.27,2.89933 -4.0892,3.22371 l -4.0892,0.47051 -0.4033,29.3989 -0.4033,29.3989 4.4925,0.8985 c 3.0819,0.61638 4.4925,1.77395 4.4925,3.6866 0,2.49381 -1.2557,2.78811 -11.8959,2.78811 -10.9046,0 -11.8959,-0.24783 -11.8959,-2.97398 z"
         id="path17" />
      <path
         style="fill:#6fffe9;fill-opacity:1;fill-rule:nonzero;stroke-width:1.48699"
         d="m -1353.6814,545.12155 c -5.3852,-0.97328 -8.8593,-2.68101 -11.8959,-5.84759 l -4.2893,-4.47283 -0.7435,-27.7876 -0.7435,-27.78761 -4.8327,-0.46596 c -3.5216,-0.33954 -4.8327,-1.20406 -4.8327,-3.18663 0,-3.61152 1.561,-3.93661 15.9851,-3.32909 10.7846,0.45423 12.2677,0.85115 12.2677,3.28323 0,2.03431 -1.2791,2.88986 -4.8327,3.23249 l -4.8327,0.46596 v 26.23931 c 0,23.54962 0.2851,26.55428 2.782,29.31205 4.5263,4.99926 12.0016,6.77749 19.5761,4.65677 11.537,-3.23016 11.8426,-4.1067 11.8426,-33.96696 v -26.24117 l -4.9223,-0.47264 c -3.6762,-0.35299 -4.8012,-1.10586 -4.444,-2.97398 0.3998,-2.09051 2.7347,-2.57155 14.216,-2.92888 12.9706,-0.40367 13.7377,-0.25837 13.7377,2.60223 0,2.47128 -0.9594,3.02978 -5.2045,3.02978 h -5.2045 v 23.60595 c 0,12.98327 -0.4262,25.73724 -0.9472,28.34215 -1.2946,6.47285 -8.1179,12.90883 -14.975,14.1249 -3.1015,0.55003 -6.6428,1.21175 -7.8696,1.47047 -1.2267,0.25872 -5.6535,-0.14824 -9.8371,-0.90435 z"
         id="path18" />
      <path
         style="fill:#6fffe9;fill-opacity:1;fill-rule:nonzero;stroke-width:1.48699"
         d="m -1412.2554,558.87746 c -2.0499,-0.62355 -6.028,-2.32358 -8.8402,-3.77784 -2.8123,-1.45426 -8.6618,-2.72672 -12.9989,-2.82768 -4.3371,-0.10096 -7.8869,-0.46545 -7.8884,-0.80997 -10e-4,-0.34452 1.0537,-1.79371 2.3449,-3.22041 2.1758,-2.40425 1.9547,-2.78043 -3.0231,-5.14253 -5.5847,-2.6501 -15.6813,-13.23086 -15.6813,-16.4332 0,-1.0114 -0.7772,-2.09799 -1.7272,-2.41464 -1.1377,-0.37923 -1.7346,-5.11592 -1.749,-13.87856 -0.018,-11.16843 0.5247,-14.25717 3.3845,-19.25079 12.4865,-21.80362 41.5688,-26.6215 59.54,-9.86362 3.2104,2.99373 6.9623,8.11061 8.3374,11.37085 3.2925,7.80621 3.2368,23.36056 -0.1131,31.58977 -3.472,8.52929 -15.107,18.8396 -23.2181,20.57463 -3.4632,0.74082 -6.5207,2.02434 -6.7944,2.85226 -0.5823,1.76141 10.0514,6.67313 14.447,6.67313 2.5553,0 2.7729,0.45435 1.4245,2.97398 -1.7262,3.22534 -1.9172,3.26599 -7.4446,1.58462 z m -4.061,-20.28169 c 8.6833,-2.95868 18.352,-13.08508 19.7845,-20.72094 1.6293,-8.68469 -0.2683,-21.26779 -4.0365,-26.76715 -1.8576,-2.71103 -6.0814,-6.7068 -9.3862,-8.87949 -5.4196,-3.56308 -7.1296,-3.9032 -17.4424,-3.46939 -10.3414,0.43502 -11.8815,0.90647 -16.1213,4.93501 -7.0385,6.68783 -10.3631,14.26841 -10.3631,23.62886 0,17.02277 7.5244,27.34924 23.7918,32.65149 3.9567,1.28968 6.7688,1.00826 13.7732,-1.37839 z"
         id="path20" />
      <path
         style="fill:#6fffe9;fill-opacity:1;fill-rule:nonzero;stroke-width:0.743494"
         d="m -1299.1836,544.03916 c -2.0401,-1.49171 -0.9137,-4.21844 1.7426,-4.21844 5.0459,0 5.9644,-4.75177 5.9644,-30.85502 0,-25.84482 -0.8517,-30.42292 -5.7672,-30.99896 -2.5762,-0.3019 -4.799,-3.96119 -3.1061,-5.11337 1.2765,-0.86873 18.6565,-0.16676 21.3647,0.86291 3.4543,1.31332 1.6157,4.03103 -3.2539,4.80971 l -3.005,0.48052 -0.4897,21.23439 c -0.2693,11.67891 -0.4897,25.02116 -0.4897,29.64944 v 8.41506 l 2.0446,0.45095 c 4.2496,0.93726 5.6796,1.56334 6.4525,2.82503 0.6256,1.02128 0.4868,1.53045 -0.6466,2.37211 -1.9676,1.4611 -18.8347,1.53054 -20.8106,0.0857 z"
         id="path22" />
      <path
         id="path24"
         style="fill:#6fffe9;fill-opacity:1;fill-rule:nonzero;stroke-width:0.743494"
         d="m -1282.045,493.3295 c -0.015,-0.0311 -0.03,0.35066 -0.043,0.85937 0.029,0.008 0.059,0.0156 0.088,0.0254 -0.016,-0.51897 -0.031,-0.85598 -0.045,-0.88476 z" />
      <path
         style="fill:#6fffe9;fill-opacity:1;fill-rule:nonzero;stroke-width:0.262865"
         d="m -1374.1121,439.46805 c -0.057,-0.10843 -0.013,-6.88049 0.099,-15.04902 0.2399,-17.48723 0.3437,-52.29093 0.1565,-52.47811 -0.072,-0.0716 -4.4299,-0.2215 -9.6852,-0.33306 l -9.555,-0.20285 9.9232,-0.0423 9.9231,-0.0423 v 34.17245 c 0,29.57823 -0.051,34.17244 -0.3788,34.17244 -0.2083,0 -0.4257,-0.0887 -0.4831,-0.19715 z"
         id="path27" />
      <path
         style="fill:#6fffe9;fill-opacity:1;fill-rule:nonzero;stroke-width:0.262865"
         d="m -1373.9064,420.14748 c 0.073,-10.59017 0.1909,-24.00764 0.2621,-29.8166 0.071,-5.80895 0.052,-12.34443 -0.042,-14.52329 l -0.1715,-3.96155 h -0.7476 c -0.4111,0 -0.7475,-0.11829 -0.7475,-0.26287 0,-0.14457 0.4731,-0.26286 1.0514,-0.26286 h 1.0515 l -2e-4,10.58031 c -3e-4,21.5327 -0.3563,57.50172 -0.5691,57.50172 -0.1208,0 -0.16,-8.66469 -0.087,-19.25486 z"
         id="path28" />
      <path
         style="fill:#6fffe9;fill-opacity:1;fill-rule:nonzero;stroke-width:0.262865"
         d="m -1373.9059,412.52439 0.083,-26.87794 -0.2365,24.97217 c -0.1301,13.7347 -0.3062,25.70885 -0.3913,26.60922 l -0.1549,1.63705 -1.3082,-0.66293 c -2.8287,-1.43342 -15.8599,-8.60225 -19.5688,-10.76538 -11.3008,-6.59084 -25.44,-16.9967 -35.6641,-26.24715 l -2.8257,-2.55671 v -13.6562 -13.65621 l 7.163,0.003 c 9.7481,0.004 42.6403,0.46194 48.2357,0.67212 l 4.5345,0.17032 0.026,3.71758 c 0.014,2.04466 0.1258,4.36816 0.2478,5.16332 0.1557,1.01489 0.1871,0.3562 0.1054,-2.2102 -0.064,-2.01077 -0.1164,-4.40613 -0.1164,-5.32301 v -1.66706 h -0.7886 c -0.4337,0 -0.7886,-0.11829 -0.7886,-0.26287 0,-0.14457 0.4732,-0.26286 1.0515,-0.26286 h 1.0515 l -2e-4,12.5518 c -3e-4,21.10044 -0.3377,55.53023 -0.5442,55.53023 -0.1072,0 -0.1573,-12.09508 -0.1114,-26.87795 z"
         id="path29" />
      <path
         style="fill:#6fffe9;fill-opacity:1;fill-rule:nonzero;stroke-width:0.262865"
         d="m -1373.9186,415.54734 0.1002,-23.855 -0.2255,17.21766 c -0.124,9.46971 -0.2623,20.01736 -0.3073,23.43922 -0.045,3.42185 -0.1518,6.29133 -0.2373,6.37661 -0.1477,0.14733 -11.0969,-5.69153 -17.7609,-9.47133 -12.9957,-7.37114 -26.024,-16.74557 -38.2541,-27.52553 l -3.3347,-2.93927 -0.017,-13.7347 -0.017,-13.73469 7.163,10e-4 c 9.7471,0.002 43.2255,0.46793 48.4914,0.67488 l 4.2643,0.16758 0.081,3.58673 0.081,3.58673 0.058,-3.74583 0.058,-3.74582 h -0.7886 c -0.4337,0 -0.7886,-0.11829 -0.7886,-0.26287 0,-0.14457 0.4745,-0.26286 1.0543,-0.26286 h 1.0543 l -0.063,21.88351 c -0.106,36.51416 -0.2036,46.19852 -0.4656,46.19852 -0.1508,0 -0.2067,-9.19198 -0.1451,-23.855 z"
         id="path30" />
      <path
         style="fill:#6fffe9;fill-opacity:1;fill-rule:nonzero;stroke-width:0.262865"
         d="m -1373.9555,418.17599 c 0.055,-11.67449 0.057,-18.74227 0,-15.70618 -0.053,3.03609 -0.1837,12.40074 -0.2892,20.81033 -0.1055,8.4096 -0.2607,15.35891 -0.3448,15.44291 -0.2605,0.26019 -16.6538,-8.68304 -23.242,-12.67952 -10.7119,-6.4979 -22.396,-15.16572 -32.7756,-24.31456 l -3.3347,-2.93927 -0.017,-13.7347 -0.017,-13.73469 7.1631,10e-4 c 9.7456,0.002 43.225,0.46791 48.49,0.67481 l 4.2629,0.16753 0.084,2.79819 0.084,2.7982 0.056,-2.95723 0.056,-2.95723 h -0.7886 c -0.4337,0 -0.7886,-0.11829 -0.7886,-0.26287 0,-0.14457 0.4732,-0.26286 1.0515,-0.26286 h 1.0514 l -2e-4,17.28337 c -3e-4,24.06056 -0.3042,50.79866 -0.5774,50.79866 -0.1283,0 -0.1843,-9.3031 -0.1277,-21.22635 z"
         id="path31" />
      <path
         style="fill:#6fffe9;fill-opacity:1;fill-rule:nonzero;stroke-width:0.262865"
         d="m -1373.9923,421.33037 c 0.068,-9.93958 0.082,-16.53421 0.031,-14.65472 -0.051,1.87948 -0.1777,9.82466 -0.282,17.65595 -0.1043,7.83128 -0.2589,14.30791 -0.3436,14.3925 -0.1577,0.15748 -1.8478,-0.7248 -11.9378,-6.23186 -16.7001,-9.11477 -29.1277,-17.74175 -43.1274,-29.93796 l -4.3198,-3.76333 v -13.73532 -13.73532 l 8.0831,10e-4 c 10.1528,0.001 41.8884,0.45163 47.568,0.67502 l 4.261,0.16759 0.089,2.00968 0.089,2.00969 0.053,-2.16864 0.053,-2.16863 h -0.7885 c -0.4338,0 -0.7887,-0.11829 -0.7887,-0.26287 0,-0.14457 0.4732,-0.26286 1.0515,-0.26286 h 1.0515 l -3e-4,19.64916 c -3e-4,26.3035 -0.2777,48.43287 -0.6069,48.43287 -0.1678,0 -0.2151,-6.32938 -0.135,-18.07197 z"
         id="path32" />
      <path
         style="fill:#6fffe9;fill-opacity:1;fill-rule:nonzero;stroke-width:0.262865"
         d="m -1328.0373,450.71143 c -21.1804,-0.13577 -21.4384,-0.14374 -22.7379,-0.70203 -0.7228,-0.31058 -3.2349,-1.46472 -5.5823,-2.56475 -2.3473,-1.10003 -7.0198,-3.18069 -10.3831,-4.62369 l -6.1152,-2.62363 -0.067,-34.60955 -0.067,-34.60956 4.404,0.18375 c 2.4221,0.10106 5.6459,0.35221 7.164,0.55809 4.4794,0.60754 22.3889,1.10979 60.7218,1.70288 21.7592,0.33667 39.8675,0.74218 41.9927,0.94038 l 1.6429,0.15321 v 38.22593 38.22594 l -24.775,-0.0598 c -13.6263,-0.0329 -34.4156,-0.12162 -46.1985,-0.19715 z m -46.058,-21.49511 -0.057,-10.18602 -0.1406,9.77017 c -0.077,5.3736 -0.2113,9.84082 -0.2979,9.92715 -0.3148,0.31411 -19.291,-10.15873 -25.8663,-14.27542 -9.3622,-5.8616 -19.8631,-13.7371 -29.2426,-21.9316 l -4.2704,-3.7309 V 385.055 l -10e-4,-13.73469 8.346,10e-4 c 10.4726,0.001 42.2333,0.45181 47.5663,0.67472 l 3.9963,0.16705 0.094,1.48438 0.094,1.48437 0.05,-1.64291 0.05,-1.6429 h -0.7886 c -0.4337,0 -0.7886,-0.11829 -0.7886,-0.26287 0,-0.14457 0.4732,-0.26286 1.0515,-0.26286 h 1.0515 v 20.98598 c 0,25.1343 -0.2652,47.09605 -0.5687,47.09605 -0.121,0 -0.2454,-4.58371 -0.2765,-10.18602 z m 0.2498,-19.71487 c -0.054,-0.68674 -0.099,-0.12486 -0.099,1.2486 0,1.37347 0.044,1.93535 0.099,1.24861 0.054,-0.68673 0.054,-1.81048 0,-2.49721 z"
         id="path33" />
      <path
         style="fill:#6fffe9;fill-opacity:1;fill-rule:nonzero;stroke-width:0.262865"
         d="m -1328.1688,450.71207 -21.5549,-0.13797 -3.8115,-1.80712 c -4.6028,-2.18225 -6.9025,-3.21149 -13.9319,-6.2352 l -5.3887,-2.31799 -0.067,-34.61778 -0.067,-34.61779 4.4039,0.18375 c 2.4222,0.10106 5.646,0.35221 7.1641,0.55809 4.4794,0.60754 22.3888,1.10979 60.7218,1.70288 21.7592,0.33667 39.8675,0.74218 41.9927,0.94038 l 1.6429,0.15321 v 38.22593 38.22594 l -24.775,-0.0592 c -13.6263,-0.0326 -34.4748,-0.12127 -46.33,-0.19715 z"
         id="path34" />
      <path
         style="fill:#6fffe9;fill-opacity:1;fill-rule:nonzero;stroke-width:0.262865"
         d="m -1374.0941,430.53064 -0.055,-8.87169 -0.1417,8.45591 c -0.078,4.65075 -0.2117,8.52561 -0.2971,8.6108 -0.1748,0.17424 -10.4634,-5.30625 -17.851,-9.5087 -13.4066,-7.6264 -24.9245,-15.90534 -37.9183,-27.25513 l -3.6143,-3.15711 v -13.74221 -13.7422 l 9.0031,10e-4 c 10.9552,0.002 42.0195,0.4461 47.1704,0.67477 l 3.732,0.16568 0.099,1.09054 0.099,1.09054 0.046,-1.24861 c 0.045,-1.22231 0.029,-1.24861 -0.7426,-1.24861 -0.4338,0 -0.7886,-0.11829 -0.7886,-0.26287 0,-0.14457 0.4731,-0.26286 1.0514,-0.26286 h 1.0515 v 22.16894 c 0,25.61489 -0.2514,45.91309 -0.5686,45.91309 -0.121,0 -0.2449,-3.99226 -0.2754,-8.8717 z"
         id="path35" />
      <path
         style="fill:#6fffe9;fill-opacity:1;fill-rule:nonzero;stroke-width:0.262865"
         d="m -1374.0927,431.71354 -0.054,-7.6888 -0.1432,7.27308 c -0.079,4.00019 -0.2129,7.34258 -0.2981,7.42754 -0.175,0.17453 -7.9501,-3.93569 -16.0112,-8.46427 -14.5974,-8.2005 -26.4291,-16.6251 -39.8898,-28.40302 l -3.4829,-3.04754 v -13.74511 -13.74511 l 9.3974,10e-4 c 11.3765,0.002 42.2234,0.44339 47.0381,0.67367 l 3.4683,0.16589 0.104,0.82817 c 0.098,0.78348 0.1064,0.77498 0.1462,-0.15758 0.04,-0.92937 0,-0.98574 -0.7466,-0.98574 -0.4337,0 -0.7886,-0.11829 -0.7886,-0.26287 0,-0.14457 0.4732,-0.26286 1.0515,-0.26286 h 1.0515 l -4e-4,22.80354 c -3e-4,25.89876 -0.2435,45.27849 -0.5682,45.27849 -0.121,0 -0.2443,-3.45996 -0.274,-7.6888 z"
         id="path36" />
      <path
         style="fill:#6fffe9;fill-opacity:1;fill-rule:nonzero;stroke-width:0.262865"
         d="m -1328.1688,450.71207 -21.5549,-0.13797 -5.2573,-2.45642 c -5.9198,-2.76596 -17.7954,-7.92675 -18.2404,-7.92675 -0.1604,0 -0.2916,-0.17743 -0.2916,-0.3943 0,-0.21686 -0.1183,-0.39429 -0.2628,-0.39429 -0.1671,0 -0.2821,-2.46658 -0.3155,-6.76878 l -0.053,-6.76877 -0.1446,6.3531 c -0.079,3.4942 -0.2142,6.42253 -0.2993,6.50741 -0.2591,0.25818 -15.1388,-7.80186 -22.1887,-12.01913 -11.5364,-6.90113 -21.7607,-14.42909 -33.581,-24.72498 l -3.6144,-3.14826 v -13.75631 -13.75631 l 9.9232,6.3e-4 c 11.7388,7.5e-4 42.1999,0.4402 46.7749,0.67481 l 3.2051,0.16436 0.1071,0.69728 c 0.095,0.61785 0.1115,0.59996 0.1464,-0.15704 0.036,-0.78274 -0.027,-0.85431 -0.7492,-0.85431 -0.4337,0 -0.7886,-0.10598 -0.7886,-0.23551 0,-0.70026 8.0943,-0.63323 14.0633,0.11646 4.7314,0.59426 23.9715,1.13094 60.8532,1.69744 21.6995,0.3333 39.8997,0.7448 41.8613,0.94648 l 1.5114,0.1554 v 38.22104 38.22105 l -24.775,-0.0592 c -13.6262,-0.0326 -34.4747,-0.12127 -46.3299,-0.19715 z m -45.151,-24.1244 c -0.054,-0.68674 -0.098,-0.12486 -0.098,1.24861 0,1.37347 0.044,1.93534 0.098,1.24861 0.054,-0.68674 0.054,-1.81049 0,-2.49722 z"
         id="path37" />
      <path
         style="fill:#6fffe9;fill-opacity:1;fill-rule:nonzero;stroke-width:0.262865"
         d="m -1328.3002,450.71143 -21.4235,-0.13733 -4.6001,-2.14519 c -9.937,-4.6339 -12.3297,-5.60915 -13.7686,-5.6119 -1.6476,-0.003 -3.7593,-0.92639 -4.5005,-1.96765 -0.2892,-0.40617 -0.7328,-0.95706 -0.9858,-1.22419 -0.4062,-0.42887 -0.4662,-1.17006 -0.5132,-6.33444 l -0.053,-5.84875 -0.144,5.56463 c -0.079,3.06054 -0.2116,5.63207 -0.2944,5.71451 -0.2561,0.25498 -14.2981,-7.31494 -21.7987,-11.7515 -10.7903,-6.3824 -22.5759,-15.04653 -34.0029,-24.9972 l -3.5868,-3.12335 v -13.76438 -13.76438 l 10.7117,6.9e-4 c 12.2449,7.9e-4 41.8581,0.43337 46.2493,0.67559 2.7403,0.15116 2.9498,0.20118 3.0528,0.72875 0.089,0.4554 0.1177,0.42474 0.1465,-0.15642 0.032,-0.63591 -0.059,-0.72288 -0.7528,-0.72288 -0.4337,0 -0.7886,-0.1043 -0.7886,-0.23178 0,-0.69514 8.0487,-0.63498 14.1947,0.1061 4.9765,0.60007 22.5067,1.0877 61.2475,1.70372 21.6899,0.34489 39.4341,0.75134 41.3356,0.94683 l 1.5114,0.1554 v 38.22104 38.22105 l -24.9064,-0.0598 c -13.6986,-0.0329 -34.5471,-0.12162 -46.33,-0.19715 z m -41.7955,-9.16888 c 0,-0.19906 -1.5497,-0.83416 -1.9902,-0.8156 -0.1343,0.006 0.1403,0.17738 0.6101,0.38161 0.4699,0.20422 0.8543,0.5023 0.8543,0.66239 0,0.16008 0.1183,0.21796 0.2629,0.1286 0.1446,-0.0893 0.2629,-0.25 0.2629,-0.357 z m -3.2318,-14.03485 c -0.063,-0.3253 -0.1139,-0.0591 -0.1139,0.59144 0,0.65059 0.051,0.91674 0.1139,0.59145 0.063,-0.3253 0.063,-0.8576 0,-1.18289 z"
         id="path38" />
      <path
         style="fill:#6fffe9;fill-opacity:1;fill-rule:nonzero;stroke-width:0.262865"
         d="m -1345.6493,452.31934 c 0,-0.16472 -0.3548,-0.29948 -0.7886,-0.29948 -0.4337,0 -0.7886,-0.10318 -0.7886,-0.22927 0,-0.1261 -0.4777,-0.30566 -1.0615,-0.39902 -0.5838,-0.0933 -1.1244,-0.33374 -1.2014,-0.53418 -0.077,-0.20044 -0.8708,-0.6316 -1.7642,-0.95813 -0.8935,-0.32652 -1.7608,-0.69764 -1.9275,-0.82471 -0.1823,-0.139 -0.3407,-0.11778 -0.3978,0.0533 -0.1062,0.3186 -2.585,-0.49149 -2.585,-0.84479 0,-0.11339 -0.2366,-0.20617 -0.5257,-0.20617 -0.2892,0 -0.5257,-0.12626 -0.5257,-0.28058 0,-0.16753 -0.2279,-0.20826 -0.5655,-0.1011 -0.436,0.13837 -0.5308,0.089 -0.414,-0.2154 0.1136,-0.29602 0.014,-0.35905 -0.3956,-0.25179 -0.3207,0.0839 -0.4815,0.0368 -0.3885,-0.11362 0.095,-0.15344 -0.153,-0.21097 -0.6161,-0.143 -0.4365,0.0641 -0.7747,-0.006 -0.7747,-0.16128 0,-0.15125 -0.2366,-0.35008 -0.5257,-0.44185 -0.2892,-0.0918 -0.5258,-0.28134 -0.5258,-0.42126 0,-0.16094 0.1805,-0.15783 0.4912,0.008 0.2701,0.14458 0.5557,0.1983 0.6346,0.11939 0.079,-0.0789 0.3902,-0.0115 0.6918,0.14993 0.3015,0.16137 0.5482,0.23128 0.5482,0.15534 0,-0.16374 -3.3798,-1.72048 -3.7352,-1.72048 -0.1349,0 -0.054,0.19151 0.1803,0.42559 0.6041,0.60415 0.2775,0.77797 -0.502,0.26718 -0.3609,-0.23645 -0.8378,-0.42991 -1.0597,-0.42991 -0.222,0 -0.4036,-0.10394 -0.4036,-0.23097 0,-0.12704 -0.361,-0.38052 -0.8023,-0.5633 -0.4913,-0.20351 -0.7497,-0.46938 -0.6666,-0.6859 0.075,-0.19447 0.051,-0.3341 -0.052,-0.31029 -0.1032,0.0238 -0.6608,-0.0847 -1.2391,-0.24115 -0.5783,-0.15643 -1.4897,-0.35911 -2.0253,-0.4504 -0.686,-0.11692 -0.9322,-0.2744 -0.833,-0.53283 0.1632,-0.42529 -1.3341,-1.30284 -1.8713,-1.09671 -0.1896,0.0728 -0.7113,-0.27038 -1.1592,-0.76257 l -0.8143,-0.8949 -0.052,-5.06715 -0.052,-5.06716 -0.1455,4.7761 c -0.08,2.62686 -0.2133,4.84352 -0.2961,4.92592 -0.2561,0.25489 -14.2988,-7.31544 -21.7987,-11.75157 -10.7348,-6.34954 -22.8104,-15.2135 -33.8439,-24.84257 l -3.7458,-3.26905 V 385.0887 371.31986 l 11.1061,0.002 c 12.664,0.002 41.4526,0.42357 45.8554,0.67122 2.2072,0.12415 2.9726,0.25911 3.062,0.53994 0.071,0.22246 0.1024,0.18563 0.078,-0.0907 -0.026,-0.29832 -0.2997,-0.495 -0.7619,-0.54835 -1.4783,-0.17063 -0.6431,-0.52431 1.6707,-0.70743 2.6635,-0.21081 6.7938,-0.0268 11.9348,0.53158 5.5539,0.60328 22.691,1.07642 61.7733,1.70552 21.6587,0.34864 38.7902,0.7462 40.6784,0.944 l 1.5114,0.15835 v 38.22104 38.22105 l -22.6721,0.0635 -22.6721,0.0635 22.7378,0.13581 c 20.2918,0.12121 18.4608,0.14265 -17.0205,0.19934 -35.1372,0.0561 -39.7583,0.10935 -39.7583,0.45782 0,0.32891 -0.534,0.39468 -3.2201,0.39659 -1.771,10e-4 -3.8411,0.0769 -4.6001,0.16804 -0.9543,0.11462 -1.3801,0.0734 -1.3801,-0.13371 z m 7.0456,-1.54674 c -1.4019,-0.0472 -3.7677,-0.0474 -5.2573,-4.2e-4 -1.4896,0.0469 -0.3425,0.0855 2.549,0.0858 2.8915,2.4e-4 4.1103,-0.0382 2.7083,-0.0853 z m 24.7138,-0.001 c -3.7127,-0.0411 -9.8637,-0.0412 -13.669,-8e-5 -3.8052,0.0411 -0.7676,0.0747 6.7504,0.0748 7.5179,4e-5 10.6313,-0.0336 6.9186,-0.0747 z m -43.1338,-3.64201 c -0.087,-0.0874 -0.314,-0.0967 -0.5038,-0.0208 -0.2097,0.0839 -0.1474,0.1462 0.1588,0.15881 0.2771,0.0114 0.4324,-0.0507 0.345,-0.13806 z m -6.8947,-2.99556 c -0.089,-0.14458 -0.2808,-0.26287 -0.4253,-0.26287 -0.1446,0 -0.1898,0.11829 -0.1004,0.26287 0.089,0.14457 0.2807,0.26286 0.4253,0.26286 0.1446,0 0.1898,-0.11829 0.1004,-0.26286 z"
         id="path39" />
      <path
         style="fill:#6fffe9;fill-opacity:1;fill-rule:nonzero;stroke-width:0.262865"
         d="m -1346.9636,451.74449 c -0.7952,-0.30134 -2.0964,-0.85408 -2.8915,-1.22831 -2.4674,-1.16122 -3.2567,-1.45982 -4.1283,-1.56185 -0.4633,-0.0542 -1.4268,-0.39214 -2.1411,-0.7509 -0.7142,-0.35875 -1.4194,-0.65228 -1.5671,-0.65228 -0.1477,0 -0.3105,-0.12592 -0.3618,-0.27982 -0.051,-0.1539 -0.6037,-0.34828 -1.2275,-0.43195 -0.6238,-0.0837 -1.1907,-0.29937 -1.2598,-0.47933 -0.069,-0.17995 -0.6798,-0.47954 -1.3573,-0.66576 -0.6775,-0.18621 -1.2909,-0.40767 -1.3632,-0.49212 -0.072,-0.0845 -0.8412,-0.49001 -1.7087,-0.90122 -0.8674,-0.41122 -1.9912,-0.95743 -2.4972,-1.21382 -0.506,-0.25638 -1.3582,-0.54411 -1.8938,-0.63938 -0.6139,-0.10921 -0.928,-0.29243 -0.85,-0.49577 0.1417,-0.36913 -1.5528,-1.37267 -1.9272,-1.14133 -0.1358,0.084 -0.5108,-0.12812 -0.8332,-0.47131 -0.3224,-0.34319 -1.0072,-0.70296 -1.5217,-0.79949 -0.5146,-0.0965 -1.1256,-0.36735 -1.3578,-0.60182 -0.3883,-0.39204 -0.38,-0.40892 0.1035,-0.21006 0.2891,0.11893 0.7919,0.27397 1.1171,0.34452 l 0.5915,0.12827 -0.05,-4.43363 -0.05,-4.43363 -0.1472,4.11896 c -0.081,2.26544 -0.2146,4.18589 -0.2968,4.26769 -0.2649,0.26361 -16.0796,-8.28306 -22.7197,-12.27834 -10.8476,-6.52684 -21.8139,-14.62625 -32.9239,-24.31663 l -3.7458,-3.26718 v -13.81212 -13.81212 l 22.0149,0.18515 c 27.3365,0.22991 37.6261,0.49902 37.9728,0.99312 0.1996,0.28447 0.2276,0.27655 0.1424,-0.0403 -0.058,-0.21687 -0.4222,-0.43173 -0.8086,-0.47748 -1.4578,-0.17257 -0.6158,-0.52504 1.6903,-0.70756 2.499,-0.19779 7.7939,0.004 10.7907,0.41225 4.6641,0.63461 18.7415,1.0567 56.3442,1.68937 28.01,0.47127 45.8316,0.87751 47.5128,1.08303 l 1.2486,0.15264 v 38.22219 38.22219 l -21.2263,0.0371 c -11.6745,0.0204 -25.7214,0.11587 -31.2153,0.21219 -7.3245,0.12842 -1.6452,0.19689 21.2921,0.25672 17.2045,0.0449 30.7486,0.17061 30.098,0.27941 -0.6505,0.10881 -17.3293,0.18362 -37.0639,0.16624 -19.7346,-0.0174 -34.5799,-0.0969 -32.9896,-0.17679 2.4614,-0.12359 2.1217,-0.15292 -2.2829,-0.19715 -3.2988,-0.0331 -5.4427,0.0539 -5.9145,0.24016 -0.407,0.16067 -2.6326,0.34028 -4.9458,0.39913 -3.7817,0.0962 -4.3516,0.0518 -5.6516,-0.44089 z m 7.4369,-0.97044 c -0.8976,-0.0512 -2.4354,-0.0515 -3.4173,-8.3e-4 -0.9819,0.0507 -0.2475,0.0926 1.632,0.093 1.8795,4.6e-4 2.6828,-0.041 1.7853,-0.0922 z m 21.0339,-0.002 c -1.9069,-0.0448 -5.1007,-0.045 -7.0973,-2.5e-4 -1.9966,0.0447 -0.4363,0.0814 3.4672,0.0815 3.9036,1.5e-4 5.5371,-0.0364 3.6301,-0.0813 z m -40.5626,-4.38827 c 0,-0.0638 -0.1183,-0.18902 -0.2629,-0.27838 -0.1445,-0.0894 -0.2628,-0.0372 -0.2628,0.11592 0,0.15311 0.1183,0.27838 0.2628,0.27838 0.1446,0 0.2629,-0.0522 0.2629,-0.11592 z m -2.3658,-1.1984 c -0.2168,-0.14015 -0.5126,-0.25482 -0.6571,-0.25482 -0.1446,0 -0.085,0.11467 0.1314,0.25482 0.2169,0.14015 0.5126,0.25481 0.6571,0.25481 0.1446,0 0.086,-0.11466 -0.1314,-0.25481 z m -4.5399,-1.99887 c -0.087,-0.0874 -0.3141,-0.0967 -0.5038,-0.0208 -0.2097,0.0839 -0.1474,0.1462 0.1588,0.15881 0.2771,0.0114 0.4324,-0.0507 0.345,-0.13806 z"
         id="path40" />
      <path
         style="fill:#6fffe9;fill-opacity:1;fill-rule:nonzero;stroke-width:1.48699"
         d="m -849.79224,544.29063 c -12.29283,-0.50199 -16.17058,-2.64843 -7.8067,-4.32121 l 4.46097,-0.89219 V 508.8786 478.67997 l -3.97454,-0.47052 c -2.186,-0.25878 -4.21584,-1.20686 -4.51075,-2.10685 -0.6855,-2.09194 16.22909,-3.56813 40.88464,-3.56813 h 18.56773 l -0.99595,8.474 c -0.54777,4.6607 -1.34543,8.82348 -1.77257,9.25062 -1.33804,1.33803 -3.54233,-3.41372 -3.56612,-7.68744 l -0.0228,-4.08922 h -16.23526 c -8.9294,0 -17.3199,-0.41621 -18.64557,-0.92492 -2.13455,-0.81911 -2.36111,0.66941 -1.98035,13.01115 l 0.42995,13.93608 12.31566,0.91541 c 11.70704,0.87017 15.19572,1.80865 13.39975,3.60461 -0.44141,0.44141 -6.59901,1.21162 -13.68356,1.71159 l -12.881,0.90902 0.42457,13.53006 0.42458,13.53005 8.28884,1.31646 c 4.55885,0.72405 12.67753,0.84647 18.0415,0.27204 l 9.75268,-1.04443 0.93517,-5.84824 c 1.18132,-7.38756 3.20975,-7.51278 4.40657,-0.27204 2.15181,13.01839 3.13602,12.30545 -16.5177,11.96499 -9.60966,-0.16647 -22.99256,-0.5281 -29.73977,-0.80363 z"
         id="path41" />
      <path
         style="fill:#6fffe9;fill-opacity:1;fill-rule:nonzero;stroke-width:0.371747"
         d="m -1032.1342,399.8579 v -50.92937 l 63.47579,1.6e-4 c 34.91171,8e-5 85.18122,0.11139 111.71003,0.24735 l 48.2342,0.2472 -0.003,14.34372 c -0.004,16.865 -0.40477,22.82644 -1.64553,24.46128 -0.0335,0.0442 -5.0713,0.76688 -11.195,1.60594 -20.75205,2.84341 -31.02737,4.99041 -43.76505,9.14459 -2.81697,0.9187 -5.43144,1.6937 -5.80994,1.72221 -0.3785,0.0285 -1.00121,0.51915 -1.38381,1.0903 -0.65572,0.97886 -1.60427,1.53754 -1.02834,0.60567 0.18856,-0.3051 0.0564,-0.35078 -0.44275,-0.15305 -0.39134,0.15502 -2.16371,0.76023 -3.93858,1.34492 -5.95728,1.96245 -15.58599,6.21808 -30.60195,13.5252 -17.26665,8.40237 -37.01524,19.98266 -50.92692,29.86283 l -5.36521,3.81041 h -33.65691 -33.65693 z m 159.80454,-16.26395 c 0.0298,-4.80189 -0.0879,-7.52788 -0.32504,-7.52788 -0.24195,0 -0.34898,4.51045 -0.30655,12.91822 0.0527,10.44419 0.11495,11.88589 0.32503,7.52788 0.14291,-2.96468 0.28087,-8.77788 0.30656,-12.91822 z m 0.32078,10.96655 c -0.0751,-1.07342 -0.13654,-0.19517 -0.13654,1.95167 0,2.14684 0.0614,3.02509 0.13654,1.95167 0.0751,-1.07342 0.0751,-2.82992 0,-3.90334 z"
         id="path42" />
      <path
         style="fill:#6fffe9;fill-opacity:1;fill-rule:nonzero;stroke-width:0.371747"
         d="m -1032.1342,399.80174 v -50.98553 l 101.394,0.24493 c 55.76673,0.13471 106.0406,0.35188 111.71971,0.48262 l 10.32565,0.23769 -0.0644,10.63302 c -0.0875,14.45526 -0.5163,24.42847 -1.12799,26.23779 l -0.49982,1.47839 -4.64684,0.65211 c -27.04479,3.79534 -35.30816,5.44385 -49.83863,9.94264 -4.73128,1.46485 -7.43315,2.48982 -7.82897,2.96996 -0.33243,0.40323 -0.70304,0.63452 -0.82358,0.51397 -0.34932,-0.34932 -9.52816,3.05873 -16.41588,6.09512 -7.83682,3.45479 -27.2722,12.95459 -33.37154,16.31163 -12.91086,7.10608 -26.50454,15.48587 -36.31872,22.38861 l -5.37798,3.78257 h -33.56253 -33.56248 z m 159.9369,-12.30444 c -0.10307,-6.28717 -0.33178,-11.43123 -0.50827,-11.43123 -0.17648,0 -0.30108,5.14406 -0.27689,11.43123 0.0242,6.28718 0.17169,10.92937 0.32776,10.31599 l 0.28378,-1.11525 0.044,1.27014 c 0.0242,0.69857 0.10541,1.20043 0.1805,1.11524 0.0751,-0.0852 0.0522,-5.29894 -0.0509,-11.58612 z"
         id="path43" />
      <path
         style="fill:#6fffe9;fill-opacity:1;fill-rule:nonzero;stroke-width:0.371747"
         d="m -1032.1342,399.79717 v -50.9901 l 106.97021,0.30218 c 58.83364,0.1662 107.47212,0.33556 108.0855,0.37636 0.61338,0.0408 2.74628,0.0994 4.73978,0.13029 l 3.62453,0.0561 -0.0122,10.87361 c -0.0147,13.08873 -0.50927,24.08679 -1.17436,26.11524 l -0.48755,1.48699 -7.06257,1.01538 c -19.64849,2.82488 -27.57344,4.23472 -36.43058,6.48095 -8.32337,2.11087 -18.14334,5.28065 -18.82002,6.0749 -0.33243,0.39018 -0.68332,0.63051 -0.77977,0.53406 -0.30215,-0.30215 -8.46907,2.6627 -14.35034,5.20963 -24.98663,10.82067 -50.33601,24.73629 -70.49708,38.6996 l -6.67768,4.62488 h -33.56397 -33.5639 z m 159.91725,-7.00247 c -0.20586,-2.14684 -0.31169,-6.69969 -0.23516,-10.11745 0.0834,-3.72717 -0.004,-6.30234 -0.2176,-6.43458 -0.22499,-0.13905 -0.34708,3.87204 -0.3306,10.86094 0.0154,6.53314 0.15726,10.77626 0.34561,10.33793 0.27925,-0.64985 0.3298,-0.60303 0.40132,0.37175 l 0.0818,1.11524 0.16446,-1.11524 c 0.0904,-0.61339 -0.004,-2.87175 -0.20986,-5.01859 z"
         id="path44" />
    </g>
  </g>
</svg>
